<svg id="visual" viewBox="0 0 900 200" width="900" height="200" xmlns="http://www.w3.org/2000/svg" xmlns:xlink="http://www.w3.org/1999/xlink" version="1.1"><path d="M0 108L16.7 103.3C33.3 98.7 66.7 89.3 100 94.5C133.3 99.7 166.7 119.3 200 129.8C233.3 140.3 266.7 141.7 300 138C333.3 134.3 366.7 125.7 400 112.2C433.3 98.7 466.7 80.3 500 71.2C533.3 62 566.7 62 600 65C633.3 68 666.7 74 700 82.3C733.3 90.7 766.7 101.3 800 101.7C833.3 102 866.7 92 883.3 87L900 82L900 201L883.3 201C866.7 201 833.3 201 800 201C766.7 201 733.3 201 700 201C666.7 201 633.3 201 600 201C566.7 201 533.3 201 500 201C466.7 201 433.3 201 400 201C366.7 201 333.3 201 300 201C266.7 201 233.3 201 200 201C166.7 201 133.3 201 100 201C66.7 201 33.3 201 16.7 201L0 201Z" fill="#395067"></path><path d="M0 142L16.7 147.5C33.3 153 66.7 164 100 172.2C133.3 180.3 166.7 185.7 200 180.3C233.3 175 266.7 159 300 143.5C333.3 128 366.7 113 400 117.3C433.3 121.7 466.7 145.3 500 148.7C533.3 152 566.7 135 600 138.3C633.3 141.7 666.7 165.3 700 178.7C733.3 192 766.7 195 800 183.8C833.3 172.7 866.7 147.3 883.3 134.7L900 122L900 201L883.3 201C866.7 201 833.3 201 800 201C766.7 201 733.3 201 700 201C666.7 201 633.3 201 600 201C566.7 201 533.3 201 500 201C466.7 201 433.3 201 400 201C366.7 201 333.3 201 300 201C266.7 201 233.3 201 200 201C166.7 201 133.3 201 100 201C66.7 201 33.3 201 16.7 201L0 201Z" fill="#3d9291"></path></svg>