<svg id="visual" viewBox="0 0 300 300" width="300" height="300" xmlns="http://www.w3.org/2000/svg" xmlns:xlink="http://www.w3.org/1999/xlink" version="1.1"><g transform="translate(125.60829109670954 150.16865925131043)"><path d="M84.6 -106.1C113.9 -95.1 144.9 -76.1 160.1 -47.7C175.3 -19.3 174.7 18.6 162.9 52.3C151.1 86 128.2 115.4 99.1 127.6C70.1 139.9 35.1 134.9 6.1 126.6C-23 118.3 -45.9 106.5 -67.8 92C-89.7 77.4 -110.5 60 -118.5 37.9C-126.5 15.8 -121.7 -11.1 -118.2 -43.5C-114.7 -75.9 -112.5 -113.8 -93 -128C-73.5 -142.1 -36.7 -132.6 -4.6 -126.3C27.6 -120 55.3 -117 84.6 -106.1" fill="#282c36"></path></g></svg>