<svg id="visual" viewBox="0 0 300 300" width="300" height="300" xmlns="http://www.w3.org/2000/svg" xmlns:xlink="http://www.w3.org/1999/xlink" version="1.1"><g transform="translate(152.562203827668 148.9358048237603)"><path d="M62.5 -88.3C80.9 -72.6 95.6 -54.2 107.7 -31.5C119.8 -8.9 129.3 18.1 125.7 44.3C122 70.5 105.1 95.9 81.9 108.9C58.8 121.9 29.4 122.5 3.6 117.5C-22.1 112.5 -44.3 101.9 -66 88.5C-87.7 75.1 -109 58.7 -120.9 36C-132.8 13.3 -135.4 -15.8 -125.5 -39.1C-115.6 -62.5 -93.4 -80.2 -70.4 -94.4C-47.4 -108.6 -23.7 -119.3 -0.8 -118.2C22 -117 44.1 -104 62.5 -88.3" fill="#282c36"></path></g></svg>