<svg id="visual" viewBox="0 0 900 200" width="900" height="200" xmlns="http://www.w3.org/2000/svg" xmlns:xlink="http://www.w3.org/1999/xlink" version="1.1"><path d="M0 79L15 82.2C30 85.3 60 91.7 90 91.8C120 92 150 86 180 90.7C210 95.3 240 110.7 270 107.3C300 104 330 82 360 80.2C390 78.3 420 96.7 450 104C480 111.3 510 107.7 540 95.2C570 82.7 600 61.3 630 48.8C660 36.3 690 32.7 720 36.8C750 41 780 53 810 52.3C840 51.7 870 38.3 885 31.7L900 25L900 201L885 201C870 201 840 201 810 201C780 201 750 201 720 201C690 201 660 201 630 201C600 201 570 201 540 201C510 201 480 201 450 201C420 201 390 201 360 201C330 201 300 201 270 201C240 201 210 201 180 201C150 201 120 201 90 201C60 201 30 201 15 201L0 201Z" fill="#373f67"></path><path d="M0 92L15 106.5C30 121 60 150 90 148.7C120 147.3 150 115.7 180 102.5C210 89.3 240 94.7 270 104.8C300 115 330 130 360 128.8C390 127.7 420 110.3 450 111.8C480 113.3 510 133.7 540 145.7C570 157.7 600 161.3 630 155.8C660 150.3 690 135.7 720 131.8C750 128 780 135 810 129.8C840 124.7 870 107.3 885 98.7L900 90L900 201L885 201C870 201 840 201 810 201C780 201 750 201 720 201C690 201 660 201 630 201C600 201 570 201 540 201C510 201 480 201 450 201C420 201 390 201 360 201C330 201 300 201 270 201C240 201 210 201 180 201C150 201 120 201 90 201C60 201 30 201 15 201L0 201Z" fill="#af3765"></path></svg>