<svg id="visual" viewBox="0 0 900 200" width="900" height="200" xmlns="http://www.w3.org/2000/svg" xmlns:xlink="http://www.w3.org/1999/xlink" version="1.1"><path d="M0 113L15 107.5C30 102 60 91 90 93.5C120 96 150 112 180 115.7C210 119.3 240 110.7 270 116.3C300 122 330 142 360 139C390 136 420 110 450 98.2C480 86.3 510 88.7 540 98.5C570 108.3 600 125.7 630 127.5C660 129.3 690 115.7 720 120.3C750 125 780 148 810 150.3C840 152.7 870 134.3 885 125.2L900 116L900 0L885 0C870 0 840 0 810 0C780 0 750 0 720 0C690 0 660 0 630 0C600 0 570 0 540 0C510 0 480 0 450 0C420 0 390 0 360 0C330 0 300 0 270 0C240 0 210 0 180 0C150 0 120 0 90 0C60 0 30 0 15 0L0 0Z" fill="#395067"></path><path d="M0 54L15 51.5C30 49 60 44 90 37.7C120 31.3 150 23.7 180 34.2C210 44.7 240 73.3 270 77.5C300 81.7 330 61.3 360 54.8C390 48.3 420 55.7 450 68.5C480 81.3 510 99.7 540 103.7C570 107.7 600 97.3 630 91.3C660 85.3 690 83.7 720 74C750 64.3 780 46.7 810 48C840 49.3 870 69.7 885 79.8L900 90L900 0L885 0C870 0 840 0 810 0C780 0 750 0 720 0C690 0 660 0 630 0C600 0 570 0 540 0C510 0 480 0 450 0C420 0 390 0 360 0C330 0 300 0 270 0C240 0 210 0 180 0C150 0 120 0 90 0C60 0 30 0 15 0L0 0Z" fill="#3d9291"></path></svg>