<svg id="visual" viewBox="0 0 900 200" width="900" height="200" xmlns="http://www.w3.org/2000/svg" xmlns:xlink="http://www.w3.org/1999/xlink" version="1.1"><rect x="0" y="0" width="900" height="200" fill="#3d9291"></rect><path d="M0 124L25 107.8C50 91.7 100 59.3 150 53.8C200 48.3 250 69.7 300 86.3C350 103 400 115 450 107.8C500 100.7 550 74.3 600 76.8C650 79.3 700 110.7 750 123.8C800 137 850 132 875 129.5L900 127L900 201L875 201C850 201 800 201 750 201C700 201 650 201 600 201C550 201 500 201 450 201C400 201 350 201 300 201C250 201 200 201 150 201C100 201 50 201 25 201L0 201Z" fill="#6765bb"></path><path d="M0 119L25 125.5C50 132 100 145 150 144.8C200 144.7 250 131.3 300 137.5C350 143.7 400 169.3 450 170.2C500 171 550 147 600 129.8C650 112.7 700 102.3 750 113C800 123.7 850 155.3 875 171.2L900 187L900 201L875 201C850 201 800 201 750 201C700 201 650 201 600 201C550 201 500 201 450 201C400 201 350 201 300 201C250 201 200 201 150 201C100 201 50 201 25 201L0 201Z" fill="#af3765"></path></svg>