<svg id="visual" viewBox="0 0 900 200" width="900" height="200" xmlns="http://www.w3.org/2000/svg" xmlns:xlink="http://www.w3.org/1999/xlink" version="1.1"><path d="M0 146L18.8 151.3C37.7 156.7 75.3 167.3 112.8 162.3C150.3 157.3 187.7 136.7 225.2 134.8C262.7 133 300.3 150 337.8 160.2C375.3 170.3 412.7 173.7 450.2 171C487.7 168.3 525.3 159.7 562.8 149.3C600.3 139 637.7 127 675.2 130.2C712.7 133.3 750.3 151.7 787.8 153.5C825.3 155.3 862.7 140.7 881.3 133.3L900 126L900 201L881.3 201C862.7 201 825.3 201 787.8 201C750.3 201 712.7 201 675.2 201C637.7 201 600.3 201 562.8 201C525.3 201 487.7 201 450.2 201C412.7 201 375.3 201 337.8 201C300.3 201 262.7 201 225.2 201C187.7 201 150.3 201 112.8 201C75.3 201 37.7 201 18.8 201L0 201Z" fill="#3d9291" stroke-linecap="round" stroke-linejoin="miter"></path></svg>